{
  "accessors": [
    {
      "bufferView": 1,
      "componentType": 5126,
      "count": 49988,
      "max": [
        0.11014500260353088,
        0.25067201256752014,
        0.16142800450325012
      ],
      "min": [
        -0.11014500260353088,
        -0.25067201256752014,
        -0.16142800450325012
      ],
      "type": "VEC3"
    },
    {
      "bufferView": 1,
      "byteOffset": 599856,
      "componentType": 5126,
      "count": 49988,
      "max": [
        0.9999966621398926,
        0.9998483657836914,
        0.9999947547912598
      ],
      "min": [
        -0.99997478723526,
        -0.99991774559021,
        -0.9999867677688599
      ],
      "type": "VEC3"
    },
    {
      "bufferView": 0,
      "componentType": 5125,
      "count": 300000,
      "type": "SCALAR"
    }
  ],
  "asset": {
    "extras": {
      "author": "ayoubeidrissi2001 (https://sketchfab.com/ayoubeidrissi2001)",
      "license": "CC-BY-4.0 (http://creativecommons.org/licenses/by/4.0/)",
      "source": "https://sketchfab.com/3d-models/7avr-a2-48pm-poly-31cbb0cf763b483aa854b44974f18cf6",
      "title": "7avr_à2-48PM-poly"
    },
    "generator": "Sketchfab-15.26.0",
    "version": "2.0"
  },
  "bufferViews": [
    {
      "buffer": 0,
      "byteLength": 1200000,
      "name": "floatBufferViews",
      "target": 34963
    },
    {
      "buffer": 0,
      "byteLength": 1199712,
      "byteOffset": 1200000,
      "byteStride": 12,
      "name": "floatBufferViews",
      "target": 34962
    }
  ],
  "buffers": [
    {
      "byteLength": 2399712,
      "uri": "scene.bin"
    }
  ],
  "materials": [
    {
      "doubleSided": true,
      "name": "Scene_-_Root",
      "pbrMetallicRoughness": {
        "metallicFactor": 0.0,
        "roughnessFactor": 0.6
      }
    }
  ],
  "meshes": [
    {
      "name": "Object_0",
      "primitives": [
        {
          "attributes": {
            "NORMAL": 1,
            "POSITION": 0
          },
          "indices": 2,
          "material": 0,
          "mode": 4
        }
      ]
    }
  ],
  "nodes": [
    {
      "children": [
        1
      ],
      "matrix": [
        1.0,
        0.0,
        0.0,
        0.0,
        0.0,
        2.220446049250313e-16,
        -1.0,
        0.0,
        0.0,
        1.0,
        2.220446049250313e-16,
        0.0,
        0.0,
        0.0,
        0.0,
        1.0
      ],
      "name": "Sketchfab_model"
    },
    {
      "children": [
        2
      ],
      "name": "Geode"
    },
    {
      "mesh": 0,
      "name": "Object_2"
    }
  ],
  "scene": 0,
  "scenes": [
    {
      "name": "Sketchfab_Scene",
      "nodes": [
        0
      ]
    }
  ]
}
